<svg width="195" height="417" viewBox="0 0 195 417" fill="none" xmlns="http://www.w3.org/2000/svg">
<path d="M79 0.799991H15.4V18.8H79V0.799991ZM57 129.2V152.2H34.2V129.2H57ZM77.8 110.4H13.6V178.6H34.2V170.8H77.8V110.4ZM14.2 100.6H78.4V82.8H14.2V100.6ZM14.2 73.6H78.4V55.4H14.2V73.6ZM4.6 46.4H86.4V27.6H4.6V46.4ZM129.8 157.2C120.4 157.2 118.8 155.8 118.8 147.4V91.6H157.8V101.4H181.6V4.59999H94.2V27.2H157.8V69H94.6V147.4C94.6 173 102.4 179.6 127.2 179.6H160.2C182.8 179.6 189.2 170 192.2 136.8C185.8 135.4 175.4 131.4 170.2 127.6C168.8 152.6 167.4 157.2 158.4 157.2H129.8ZM28.8 279.2C36.8 269.8 43.2 260.4 48.2 251.8C56.6 259.8 65.4 271 71 279.2H28.8ZM80.8 377.8L56.8 382V333.6H81.6V313.6H56.8V299H77.4V279.2H75.6L88.2 264.2C81.2 253.8 66.6 239.6 54.8 229.8H35.2C29 245.2 17.4 264 0.6 278.2C5.2 281.2 11.8 289 14.8 293.6C16 292.4 17.4 291.2 18.6 290V299H36.2V313.6H9V333.6H36.2V385.8C25.2 387.6 15.2 389.2 6.8 390.4L11.2 412C31.4 408.2 57.8 402.6 82.6 397.4L82 391.6L88.6 403C100 395.2 112.8 386 124.6 377L117.4 359C104.4 367.6 91.2 376 81.2 381.8L80.8 377.8ZM167.4 355.6C174.4 349 183.4 339.6 191.4 330.4L172.8 319C168.4 326.4 161 336.2 154.8 343C151.2 335.8 148.6 328.4 146.6 321.6V315H189.8V294.8H175V236.2H93V255.8H153V266.6H97.4V284.6H153V294.8H83.4V315H124.6V393.4C124.6 395.4 124 396 121.8 396C119.8 396 113.8 396.2 108.2 395.8C110.8 402 113.2 410.4 113.8 416.4C125 416.4 132.8 416 139 412.6C145.2 409.4 146.6 403.8 146.6 393.8V367.6C154.4 382.6 165.2 397 179.4 406.2C182.8 400 189.8 390.8 194.6 386.6C178.4 378.2 166.4 364.2 158 349.4L167.4 355.6ZM11 345C14 356 16.8 370.4 17.2 380L33.2 375.6C32.2 366.4 29.4 352.2 26.2 341.2L11 345ZM73.4 376C76.4 367.8 79.6 355 83.2 343.8L66 339.6C64.8 349 61.6 363.2 59 372L73.4 376ZM84.4 332C92 339.8 100.6 350.8 104 358.2L120.6 347.2C116.8 339.6 108 329 100 322L84.4 332Z" fill="black"/>
</svg>
