<svg width="956" height="235" viewBox="0 0 956 235" fill="none" xmlns="http://www.w3.org/2000/svg">
<path d="M81 24.8H17.4V42.8H81V24.8ZM59 153.2V176.2H36.2V153.2H59ZM79.8 134.4H15.6V202.6H36.2V194.8H79.8V134.4ZM16.2 124.6H80.4V106.8H16.2V124.6ZM16.2 97.6H80.4V79.4H16.2V97.6ZM6.6 70.4H88.4V51.6H6.6V70.4ZM131.8 181.2C122.4 181.2 120.8 179.8 120.8 171.4V115.6H159.8V125.4H183.6V28.6H96.2V51.2H159.8V93H96.6V171.4C96.6 197 104.4 203.6 129.2 203.6H162.2C184.8 203.6 191.2 194 194.2 160.8C187.8 159.4 177.4 155.4 172.2 151.6C170.8 176.6 169.4 181.2 160.4 181.2H131.8ZM230.8 68.2C238.8 58.8 245.2 49.4 250.2 40.8C258.6 48.8 267.4 60 273 68.2H230.8ZM282.8 166.8L258.8 171V122.6H283.6V102.6H258.8V88H279.4V68.2H277.6L290.2 53.2C283.2 42.8 268.6 28.6 256.8 18.8H237.2C231 34.2 219.4 53 202.6 67.2C207.2 70.2 213.8 78 216.8 82.6C218 81.4 219.4 80.2 220.6 79V88H238.2V102.6H211V122.6H238.2V174.8C227.2 176.6 217.2 178.2 208.8 179.4L213.2 201C233.4 197.2 259.8 191.6 284.6 186.4L284 180.6L290.6 192C302 184.2 314.8 175 326.6 166L319.4 148C306.4 156.6 293.2 165 283.2 170.8L282.8 166.8ZM369.4 144.6C376.4 138 385.4 128.6 393.4 119.4L374.8 108C370.4 115.4 363 125.2 356.8 132C353.2 124.8 350.6 117.4 348.6 110.6V104H391.8V83.8H377V25.2H295V44.8H355V55.6H299.4V73.6H355V83.8H285.4V104H326.6V182.4C326.6 184.4 326 185 323.8 185C321.8 185 315.8 185.2 310.2 184.8C312.8 191 315.2 199.4 315.8 205.4C327 205.4 334.8 205 341 201.6C347.2 198.4 348.6 192.8 348.6 182.8V156.6C356.4 171.6 367.2 186 381.4 195.2C384.8 189 391.8 179.8 396.6 175.6C380.4 167.2 368.4 153.2 360 138.4L369.4 144.6ZM213 134C216 145 218.8 159.4 219.2 169L235.2 164.6C234.2 155.4 231.4 141.2 228.2 130.2L213 134ZM275.4 165C278.4 156.8 281.6 144 285.2 132.8L268 128.6C266.8 138 263.6 152.2 261 161L275.4 165ZM286.4 121C294 128.8 302.6 139.8 306 147.2L322.6 136.2C318.8 128.6 310 118 302 111L286.4 121Z" fill="black"/>
<path d="M541.72 186L505.18 135.96L483.04 156.3V186H474.04V54.6H483.04V146.22L540.1 92.58H550.36L511.3 130.56L551.62 186H541.72ZM568.083 71.16V54.6H577.083V71.16H568.083ZM568.083 186V92.4H577.083V186H568.083ZM649.629 100.5C641.229 100.74 633.849 103.26 627.489 108.06C621.249 112.74 616.869 119.22 614.349 127.5V186H605.349V92.4H613.989V115.44C617.229 108.96 621.549 103.62 626.949 99.42C632.349 95.22 638.049 92.82 644.049 92.22C645.249 92.22 646.269 92.22 647.109 92.22C648.069 92.1 648.909 92.04 649.629 92.04V100.5ZM702.421 187.8C693.661 187.8 685.801 185.58 678.841 181.14C672.001 176.7 666.601 170.82 662.641 163.5C658.681 156.18 656.701 148.14 656.701 139.38C656.701 132.78 657.841 126.6 660.121 120.84C662.401 114.96 665.641 109.8 669.841 105.36C674.041 100.8 678.901 97.26 684.421 94.74C689.941 92.1 695.941 90.78 702.421 90.78C708.901 90.78 714.901 92.1 720.421 94.74C725.941 97.26 730.741 100.8 734.821 105.36C739.021 109.8 742.261 114.96 744.541 120.84C746.941 126.6 748.141 132.78 748.141 139.38C748.141 148.14 746.101 156.18 742.021 163.5C738.061 170.82 732.601 176.7 725.641 181.14C718.801 185.58 711.061 187.8 702.421 187.8ZM665.701 139.74C665.701 147.06 667.321 153.78 670.561 159.9C673.921 165.9 678.361 170.7 683.881 174.3C689.401 177.9 695.521 179.7 702.241 179.7C708.961 179.7 715.081 177.9 720.601 174.3C726.241 170.58 730.681 165.66 733.921 159.54C737.281 153.42 738.961 146.64 738.961 139.2C738.961 131.88 737.281 125.16 733.921 119.04C730.681 112.92 726.241 108.06 720.601 104.46C715.081 100.74 709.021 98.88 702.421 98.88C695.701 98.88 689.581 100.74 684.061 104.46C678.541 108.18 674.101 113.16 670.741 119.4C667.381 125.52 665.701 132.3 665.701 139.74ZM837.384 186L800.844 135.96L778.704 156.3V186H769.704V54.6H778.704V146.22L835.764 92.58H846.024L806.964 130.56L847.284 186H837.384ZM862.847 146.4V92.4H871.847V145.14C871.847 168.18 879.707 179.7 895.427 179.7C900.707 179.7 905.747 178.56 910.547 176.28C915.467 173.88 919.727 170.58 923.327 166.38C927.047 162.06 929.867 157.08 931.787 151.44V92.4H940.787V174.12C940.787 177 942.047 178.5 944.567 178.62V186C942.527 186.24 941.027 186.24 940.067 186C938.027 185.76 936.347 184.92 935.027 183.48C933.707 181.92 932.987 180.06 932.867 177.9L932.687 163.86C928.607 171.3 922.967 177.18 915.767 181.5C908.687 185.7 901.007 187.8 892.727 187.8C872.807 187.8 862.847 174 862.847 146.4Z" fill="black"/>
</svg>
