<svg width="391" height="188" viewBox="0 0 391 188" fill="none" xmlns="http://www.w3.org/2000/svg">
<path d="M75 6.79999H11.4V24.8H75V6.79999ZM53 135.2V158.2H30.2V135.2H53ZM73.8 116.4H9.6V184.6H30.2V176.8H73.8V116.4ZM10.2 106.6H74.4V88.8H10.2V106.6ZM10.2 79.6H74.4V61.4H10.2V79.6ZM0.6 52.4H82.4V33.6H0.6V52.4ZM125.8 163.2C116.4 163.2 114.8 161.8 114.8 153.4V97.6H153.8V107.4H177.6V10.6H90.2V33.2H153.8V75H90.6V153.4C90.6 179 98.4 185.6 123.2 185.6H156.2C178.8 185.6 185.2 176 188.2 142.8C181.8 141.4 171.4 137.4 166.2 133.6C164.8 158.6 163.4 163.2 154.4 163.2H125.8ZM224.8 50.2C232.8 40.8 239.2 31.4 244.2 22.8C252.6 30.8 261.4 42 267 50.2H224.8ZM276.8 148.8L252.8 153V104.6H277.6V84.6H252.8V70H273.4V50.2H271.6L284.2 35.2C277.2 24.8 262.6 10.6 250.8 0.799997H231.2C225 16.2 213.4 35 196.6 49.2C201.2 52.2 207.8 60 210.8 64.6C212 63.4 213.4 62.2 214.6 61V70H232.2V84.6H205V104.6H232.2V156.8C221.2 158.6 211.2 160.2 202.8 161.4L207.2 183C227.4 179.2 253.8 173.6 278.6 168.4L278 162.6L284.6 174C296 166.2 308.8 157 320.6 148L313.4 130C300.4 138.6 287.2 147 277.2 152.8L276.8 148.8ZM363.4 126.6C370.4 120 379.4 110.6 387.4 101.4L368.8 90C364.4 97.4 357 107.2 350.8 114C347.2 106.8 344.6 99.4 342.6 92.6V86H385.8V65.8H371V7.2H289V26.8H349V37.6H293.4V55.6H349V65.8H279.4V86H320.6V164.4C320.6 166.4 320 167 317.8 167C315.8 167 309.8 167.2 304.2 166.8C306.8 173 309.2 181.4 309.8 187.4C321 187.4 328.8 187 335 183.6C341.2 180.4 342.6 174.8 342.6 164.8V138.6C350.4 153.6 361.2 168 375.4 177.2C378.8 171 385.8 161.8 390.6 157.6C374.4 149.2 362.4 135.2 354 120.4L363.4 126.6ZM207 116C210 127 212.8 141.4 213.2 151L229.2 146.6C228.2 137.4 225.4 123.2 222.2 112.2L207 116ZM269.4 147C272.4 138.8 275.6 126 279.2 114.8L262 110.6C260.8 120 257.6 134.2 255 143L269.4 147ZM280.4 103C288 110.8 296.6 121.8 300 129.2L316.6 118.2C312.8 110.6 304 100 296 93L280.4 103Z" fill="white"/>
</svg>
